# xmcd CD database file
#
# Track frame offsets:
#	150
#	17099
#	29387
#	36828
#	47581
#	50814
#	67126
#	69451
#	82981
#	89157
#	103205
#	105880
#	120226
#	122772
#	135315
#	137925
#	153220
#	156414
#	169620
#	171510
#	195001
#	222293
#	249946
#	267400
#	286327
#	296014
#	309165
#
# Disc length: 4406 seconds
#
# Revision: 0
# Processed by: cddbd v1.5.2PL0 Copyright (c) Steve Scherf et al.
# Submitted via: jetAudio 7
#
DISCID=7f11341b
DTITLE=Variuos - Blues To Bop and World Music Blues And Gospel Selection 
DTITLE=28-31 Agosto 1997
DYEAR=1900
DGENRE=Blues
TTITLE0=Introduzione
TTITLE1=I'll Be Seeing You
TTITLE2=Introduzione
TTITLE3=Lovesick Blues
TTITLE4=Introduzione
TTITLE5=Bye Bye Bird
TTITLE6=Introduzione
TTITLE7=Chapel Of Love
TTITLE8=Introduzione
TTITLE9=Johnny B. Goode
TTITLE10=Introduzione
TTITLE11=Hound Dog
TTITLE12=Introduzione
TTITLE13=All I Have To Do Is Dream
TTITLE14=Introduzione
TTITLE15=I Shall Not Be Moved
TTITLE16=Introduzione
TTITLE17=Walk Right In
TTITLE18=Introduzione
TTITLE19=Amazing Grace
TTITLE20=Big Daddy Blues
TTITLE21=Big Fat Mama
TTITLE22=I Cant Stop Loving You
TTITLE23=Just A Closer Walk With Thee
TTITLE24=Let The Holy Ghost Come
TTITLE25=What Time It Is
TTITLE26=Somewhere To Lay My Head
EXTD=
EXTT0=
EXTT1=
EXTT2=
EXTT3=
EXTT4=
EXTT5=
EXTT6=
EXTT7=
EXTT8=
EXTT9=
EXTT10=
EXTT11=
EXTT12=
EXTT13=
EXTT14=
EXTT15=
EXTT16=
EXTT17=
EXTT18=
EXTT19=
EXTT20=
EXTT21=
EXTT22=
EXTT23=
EXTT24=
EXTT25=
EXTT26=
PLAYORDER=
